<svg version="1.2" xmlns="http://www.w3.org/2000/svg" viewBox="0 0 22 25" width="22" height="25">
	<title>Forma 1</title>
	<style>
		.s0 { fill: #03afa1 } 
	</style>
	<path id="Forma 1" class="s0" d="m14.4 12.4q0 0.1 0 0.2c0 0.3 0.1 0.5 0.4 0.5 0.2 0 0.4-0.2 0.4-0.4q0-0.1 0-0.2 0-0.1 0-0.2 0-0.8-0.2-1.5c-0.2-0.6-0.6-1.2-1-1.7q-0.9-0.8-2-1.1-0.5-0.2-1.1-0.2-0.2 0-0.4 0.1-0.2 0-0.3 0c-0.3 0-0.4 0.3-0.4 0.5 0.1 0.2 0.3 0.4 0.5 0.3q0.1 0 0.3 0 0 0 0 0 0.2 0 0.3 0c1 0 1.9 0.4 2.5 1 0.6 0.7 1 1.6 1 2.5v0.1q0 0.1 0 0.1zm2.3 0.4c0 0.3 0.2 0.5 0.4 0.5 0.3 0 0.5-0.2 0.5-0.4q0-0.3 0-0.6 0-0.6-0.1-1.1c-0.2-1.5-0.9-2.8-1.9-3.7-1.1-1.2-2.5-1.9-4.2-2q-0.2-0.1-0.5 0-0.3-0.1-0.6 0-0.3 0-0.6 0c-0.2 0.1-0.4 0.3-0.3 0.5 0 0.3 0.3 0.4 0.5 0.4q0.1-0.1 0.3-0.1 0.1 0 0.2 0 0.2 0 0.5 0 0.9 0 1.7 0.2c0.9 0.3 1.8 0.8 2.5 1.5 0.5 0.6 1 1.3 1.3 2.1 0.2 0.6 0.4 1.4 0.4 2.2q0 0.1 0 0.2-0.1 0.2-0.1 0.3zm0.6-7.1c-1.6-1.7-3.9-2.7-6.4-2.7q-0.4 0-0.8 0-0.4 0.1-0.8 0.1c-0.2 0.1-0.4 0.3-0.3 0.5 0 0.3 0.2 0.4 0.4 0.4q0.2-0.1 0.4-0.1 0.2 0 0.4 0 0.3-0.1 0.7-0.1c2.2 0 4.3 1 5.8 2.5 1.5 1.5 2.4 3.7 2.4 6q0 0.2 0 0.4 0 0.2 0 0.3c0 0.3 0.2 0.5 0.4 0.5 0.2 0 0.4-0.2 0.5-0.4q0-0.4 0-0.8c0-2.5-1-4.9-2.7-6.6zm2.1 10.9l-3.1-1.7c-1.1-0.6-1.1-0.2-2.2 1-0.3 0.3-0.8 1-1.3 0.9-1.2-0.3-3.5-2.1-4.2-3-0.4-0.3-1.9-2.2-1.9-2.8-0.1-1 1.9-1.4 1.3-3.2l-1.4-3.2c-1.3-3-4.9 1.8-4.6 4.1 0.8 5.6 10.4 14.7 15.7 11.7 1.2-0.7 2.8-3.1 1.7-3.8z"/>
</svg>